HIERARCHY
ROOT pelvis
{
  OFFSET 0 100 0
  CHANNELS 6 Xposition Yposition Zposition Zrotation Xrotation Yrotation
  JOINT pelvis_right_femur
  {
    OFFSET -10.78128 -3.44521 -0.5502486
    CHANNELS 3 Zrotation Xrotation Yrotation
    JOINT right_femur_tibia
    {
      OFFSET -0.8047443 -44.0398 -0.1307829
      CHANNELS 3 Zrotation Xrotation Yrotation
      JOINT right_tibia_foot
      {
        OFFSET 3.006224 -47.83518 -5
        CHANNELS 3 Zrotation Xrotation Yrotation
        End Site
        {
          OFFSET 0 -5 15
        }
      }
    }
  }
  JOINT pelvis_left_femur
  {
    OFFSET 10.78128 -3.44521 -0.5502486
    CHANNELS 3 Zrotation Xrotation Yrotation
    JOINT left_femur_tibia
    {
      OFFSET 0.8047443 -44.0398 -0.1307829
      CHANNELS 3 Zrotation Xrotation Yrotation
      JOINT left_tibia_foot
      {
        OFFSET -4.370144 -48.10324 -4.275266
        CHANNELS 3 Zrotation Xrotation Yrotation
        End Site
        {
          OFFSET 0 -5 15
        }
      }
    }
  }
  JOINT pelvis_spine1
  {
    OFFSET 0 6.468898 -3.129235
    CHANNELS 3 Zrotation Xrotation Yrotation
    JOINT spine1
    {
      OFFSET 0 23.15396 4.99043
      CHANNELS 3 Zrotation Xrotation Yrotation
      JOINT spine2
      {
        OFFSET 0 20.79997 -5.064912
        CHANNELS 3 Zrotation Xrotation Yrotation
        JOINT neck
        {
          OFFSET 0 14.38658 9.616178
          CHANNELS 3 Zrotation Xrotation Yrotation
          End Site
          {
            OFFSET 0 20 0
          }
        }
      }
      JOINT right_manubrium
      {
        OFFSET -5.722621 16.35077 3.967754
        CHANNELS 3 Zrotation Xrotation Yrotation
        JOINT right_clavicle
        {
          OFFSET -13.16364 1.694482 -4.693211
          CHANNELS 3 Zrotation Xrotation Yrotation
          JOINT right_humerus
          {
            OFFSET -28.5034 -0.3100689 -2.792744
            CHANNELS 3 Zrotation Xrotation Yrotation
            JOINT right_radius
            {
              OFFSET -25.15693 0.02248979 -1.271978
              CHANNELS 3 Zrotation Xrotation Yrotation
              End Site
              {
                OFFSET -15 0 0
              }
            }
          }
        }
      }
      JOINT left_manubrium
      {
        OFFSET 5.722621 16.35077 3.967754
        CHANNELS 3 Zrotation Xrotation Yrotation
        JOINT left_clavicle
        {
          OFFSET 13.16364 1.694482 -4.693211
          CHANNELS 3 Zrotation Xrotation Yrotation
          JOINT left_humerus
          {
            OFFSET 29.39168 -1.063119 -2.237045
            CHANNELS 3 Zrotation Xrotation Yrotation
            JOINT left_radius
            {
              OFFSET 24.59957 -0.9528479 0.9047498
              CHANNELS 3 Zrotation Xrotation Yrotation
              End Site
              {
                OFFSET 15 -0 -0
              }
            }
          }
        }
      }
    }
  }
}
MOTION
Frames: 19
Frame Time: 0.0416666666667
0 103.5113 0 0.8705744 -0.894156 0.09186674 3.354702 -16.34547 8.866642 -0 39.03772 -0 -5.671493 -15.55634 -2.877051 -7.385595 6.382193 -23.3086 -0 4.444083 -0 7.419975 -18.38836 26.58015 -2.039916 -2.004307 4.246769 2.16368 10.10783 -6.835137 0.7298779 22.15176 7.075899 4.677784 -23.80411 7.575499 6.172084 -18.49448 11.88647 84.93209 37.75437 -17.24881 -0 0 12.94486 -10.61746 8.757032 6.624836 6.36304 -21.57773 -2.801799 -92.89834 22.56615 21.58018 0 0 -15.29161 12.20115 16.91532 -0.2862675
0.3802579 103.379 0.9440917 0.8183534 -0.7858594 0.1747068 3.614325 -18.11969 8.911063 -0 38.78389 -0 -5.804036 -15.18017 -3.098484 -7.347657 8.037268 -23.45798 -0 5.463791 -0 7.387255 -18.72054 26.34308 -1.978541 -2.226219 4.043032 2.376509 10.25109 -7.16318 0.6454769 22.07018 7.145064 4.796811 -24.30863 7.602984 6.256299 -18.49254 11.95296 85.71109 38.07684 -18.43391 -0 0 12.32312 -9.751531 8.504352 6.154568 6.510231 -22.16905 -2.897986 -92.80318 22.48508 21.39624 0 0 -16.14826 13.19321 17.33823 -1.287585
0.7061459 103.2551 2.329021 0.7891777 -1.041196 0.368104 3.533144 -20.16087 8.163472 -0 38.50094 -0 -5.615308 -13.04357 -3.463123 -7.163938 10.28539 -22.53458 -0 6.475307 -0 6.546779 -19.19435 25.11779 -1.974114 -2.110462 3.978715 2.395236 10.09451 -7.255768 0.7079027 22.06187 7.135137 4.640298 -24.18992 7.707441 6.165178 -18.2407 11.85987 86.0175 37.8549 -18.8844 -0 0 12.10374 -9.896986 8.755903 6.132215 6.421307 -22.06086 -2.880829 -92.42687 23.18224 20.83907 0 0 -16.93622 12.11365 17.08044 0.0330384
0.9828167 103.0472 3.956824 0.705705 -0.982591 0.5846043 3.639903 -21.84761 7.583708 -0 36.49465 -0 -5.746784 -12.15193 -3.587347 -6.935795 11.68237 -21.92951 -0 6.555379 -0 6.181126 -19.58739 24.32357 -1.948095 -2.132432 3.878821 2.480754 10.06587 -7.419016 0.7093239 22.02533 7.153806 4.60127 -24.31592 7.771101 6.148866 -18.12307 11.83787 86.44629 37.8514 -19.52843 -0 0 11.78883 -9.657567 8.795327 5.954947 6.423154 -22.21132 -2.904386 -92.21584 23.51931 20.518 0 0 -17.63745 11.89763 17.09966 0.3764628
1.19264 102.6403 5.946926 0.5590039 -0.8325609 0.8225347 3.785537 -24.10089 6.631958 -0 32.6567 -0 -6.026948 -11.09497 -3.666499 -6.556277 13.34291 -20.94356 -0 6.209002 -0 5.686231 -20.1215 23.15194 -1.926417 -2.119981 3.78117 2.553428 10.00294 -7.573232 0.726628 21.99482 7.16616 4.530303 -24.3842 7.848371 6.111964 -17.96196 11.79626 86.86949 37.78567 -20.15926 -0 0 11.47633 -9.505499 8.890541 5.807242 6.40303 -22.30552 -2.91983 -91.94247 23.96188 20.10601 0 0 -18.40146 11.45508 17.04161 0.9811969
1.337839 102.0165 8.321579 0.4049135 -0.6914489 1.080746 3.893418 -26.29138 5.621536 -0 28.57189 -0 -6.317822 -10.03055 -3.726745 -6.179753 14.92292 -19.8812 -0 5.879836 -0 5.138257 -20.61677 21.91815 -1.906575 -2.12026 3.677277 2.627297 9.958155 -7.725722 0.7371038 21.96878 7.181438 4.479191 -24.46142 7.914454 6.083268 -17.80793 11.76237 87.29184 37.73694 -20.78198 -0 0 11.14381 -9.33404 8.952792 5.651081 6.402302 -22.43073 -2.943354 -91.67315 24.31225 19.69102 0 0 -19.1151 11.16727 17.01279 1.394947
1.417168 101.1604 11.19591 0.2418871 -0.6336754 1.371139 3.908372 -28.57206 4.392282 -0 24.16449 -0 -6.570694 -8.594212 -3.816728 -5.791579 16.64043 -18.52268 -0 5.811974 -0 4.344771 -21.07719 20.3873 -1.893646 -2.105122 3.555992 2.695333 9.904503 -7.877312 0.7535712 21.95567 7.196569 4.424706 -24.49685 7.98089 6.045109 -17.6052 11.71779 87.73807 37.65496 -21.4254 -0 0 10.75038 -9.210358 9.022807 5.500077 6.412755 -22.55934 -2.973782 -91.32374 24.64145 19.1396 0 0 -19.86337 10.88655 16.95346 1.783774
1.441522 100.0939 14.67625 0.09468952 -0.7309332 1.704611 3.791706 -30.56185 3.01855 -0 19.9789 -0 -6.717727 -6.80222 -3.945793 -5.442297 18.25028 -16.89217 -0 6.281548 -0 3.279511 -21.36829 18.63163 -1.889834 -2.075193 3.425773 2.750722 9.847506 -8.0138 0.774601 21.9587 7.210458 4.37324 -24.48298 8.04066 6.000836 -17.36703 11.66612 88.16901 37.54591 -22.03151 -0 0 10.32294 -9.149797 9.09232 5.368064 6.436595 -22.68271 -3.009758 -90.91749 24.90681 18.48568 0 0 -20.57692 10.65391 16.86924 2.091172
1.427206 98.87949 18.878 -0.02126958 -1.054634 2.087771 3.556728 -32.02314 1.558564 -0 16.35158 -0 -6.712305 -4.619384 -4.146198 -5.155977 19.62466 -14.96246 -0 7.772666 -0 1.8811 -21.35 16.65759 -1.896767 -2.023834 3.283172 2.791209 9.781902 -8.134539 0.8030561 21.98093 7.222419 4.320514 -24.40579 8.095496 5.946435 -17.07897 11.60329 88.58894 37.39794 -22.60416 -0 0 9.848916 -9.170504 9.16936 5.258927 6.47371 -22.79606 -3.051868 -90.43267 25.11413 17.69245 0 0 -21.27121 10.4464 16.74673 2.340569
1.396797 97.64248 23.86026 -0.08528175 -1.648035 2.510749 3.304295 -32.57268 0.2376082 -0 13.79152 -0 -6.530013 -2.252171 -4.438195 -4.951236 20.47421 -12.86312 -0 10.85206 -0 0.2129787 -20.83698 14.64882 -1.913397 -1.953809 3.133786 2.815997 9.710653 -8.236166 0.8376985 22.02063 7.231895 4.268048 -24.27065 8.143745 5.883841 -16.75356 11.53219 88.98364 37.21683 -23.12472 -0 0 9.347004 -9.268743 9.251571 5.17581 6.521986 -22.89615 -3.098691 -89.89085 25.25621 16.7941 0 0 -21.92393 10.26907 16.59209 2.527218
1.372082 96.57473 29.59546 -0.08250543 -2.526466 2.940728 3.200371 -31.88102 -0.6494454 -0 12.74026 -0 -6.176813 -0.008956333 -4.838809 -4.81287 20.51709 -10.79427 -0 16.14858 -0 -1.601824 -19.65868 12.85248 -1.936878 -1.870902 2.991286 2.824166 9.638162 -8.312418 0.876154 22.07233 7.237628 4.217133 -24.09224 8.183456 5.817117 -16.42016 11.45855 89.32367 37.01601 -23.55645 -0 0 8.863263 -9.433129 9.336652 5.124764 6.573768 -22.9724 -3.145501 -89.34152 25.33676 15.87369 0 0 -22.4931 10.11299 16.41619 2.667112
1.365345 95.90841 35.93502 -0.01328955 -3.641053 3.316785 3.406265 -29.7131 -0.823144 -0 13.37224 -0 -5.715742 1.663087 -5.322733 -4.685797 19.4684 -9.024661 -0 23.99763 -0 -3.361387 -17.72939 11.57245 -1.963927 -1.782462 2.900216 2.803523 9.572602 -8.330095 0.9143903 22.1268 7.234309 4.170865 -23.88771 8.205654 5.756245 -16.15745 11.39562 89.49193 36.82781 -23.74314 -0 0 8.545294 -9.669083 9.422166 5.141935 6.606725 -22.97427 -3.175901 -88.91926 25.35693 15.16032 0 0 -22.81155 9.945329 16.23318 2.803528
1.370576 95.84767 42.61288 0.09403506 -4.868529 3.549664 3.978667 -25.9931 -0.1816731 -0 15.30333 -0 -5.281741 2.269106 -5.794569 -4.482876 17.07891 -7.780525 -0 34.12716 -0 -4.849318 -15.10084 11.05572 -1.992869 -1.690725 2.938108 2.725844 9.521188 -8.222753 0.9493538 22.17391 7.211141 4.130619 -23.66161 8.194465 5.714035 -16.08725 11.36107 89.27232 36.69334 -23.3901 -0 0 8.647827 -10.02205 9.512513 5.303783 6.581525 -22.79876 -3.1603 -88.83419 25.32094 15.01605 0 0 -22.57672 9.685169 16.04601 3.031031
1.364145 96.47314 49.29018 0.1824407 -6.009478 3.532773 4.819449 -20.85728 1.112962 -0 17.52033 -0 -5.060804 1.385018 -6.085432 -4.117934 13.18991 -7.15978 -0 45.28979 -0 -5.871336 -12.01178 11.40892 -2.024887 -1.589847 3.161738 2.565728 9.483752 -7.936461 0.9819175 22.20999 7.158729 4.093525 -23.39956 8.138634 5.695537 -16.28832 11.36403 88.50205 36.62073 -22.26787 -0 0 9.35571 -10.55159 9.617215 5.676224 6.467877 -22.36011 -3.076278 -89.22359 25.23115 15.67855 0 0 -21.56416 9.250711 15.83921 3.440281
1.323348 97.66737 55.66766 0.1943818 -6.848201 3.18142 5.690911 -14.76617 2.635421 -0 18.7687 -0 -5.172989 -1.025502 -6.033895 -3.558068 7.941911 -7.040972 -0 55.19704 -0 -6.323151 -8.908051 12.4942 -2.064915 -1.466489 3.538787 2.325764 9.449764 -7.488465 1.018608 22.24658 7.078414 4.053476 -23.06657 8.043914 5.686791 -16.6927 11.39117 87.26494 36.54561 -20.47211 -0 0 10.5593 -11.28854 9.742376 6.246744 6.280825 -21.68562 -2.936231 -89.97305 25.06858 16.9485 0 0 -19.88802 8.649074 15.58186 4.012363
1.255772 99.13239 61.62978 0.1211549 -7.271645 2.492181 6.312074 -8.472583 3.84329 -0 18.33864 -0 -5.532342 -4.332535 -5.596972 -2.838138 1.928744 -7.081262 -0 61.21387 -0 -6.253262 -6.336366 13.91579 -2.118823 -1.30859 3.964729 2.034644 9.407646 -6.957161 1.067566 22.30506 6.981106 4.006558 -22.62491 7.927997 5.660726 -17.12411 11.41433 85.85249 36.37158 -18.37696 -0 0 11.91134 -12.2202 9.883708 6.93203 6.075361 -20.9052 -2.783719 -90.77374 24.80059 18.29736 0 0 -17.93229 7.992118 15.25028 4.603528
1.207319 100.5133 67.28317 0.01455212 -7.33667 1.560307 6.509374 -2.648862 4.371217 -0 16.5341 -0 -5.892101 -7.544109 -4.855007 -2.011709 -4.070528 -6.9178 -0 61.80021 -0 -5.829296 -4.672474 15.24198 -2.185657 -1.119021 4.357272 1.723547 9.356796 -6.415668 1.130991 22.39446 6.876713 3.952887 -22.07505 7.805819 5.598732 -17.46198 11.41638 84.51774 36.05281 -16.31715 -0 0 13.14097 -13.29408 10.03063 7.650041 5.894689 -20.1385 -2.655972 -91.4015 24.42668 19.35299 0 0 -16.0205 7.385356 14.85276 5.09129
1.236826 101.5251 72.83436 -0.06430102 -7.184807 0.5235834 6.29254 2.457479 4.215052 -0 14.19316 -0 -6.063159 -10.03146 -3.920961 -1.116885 -9.571804 -6.411181 -0 57.28227 -0 -5.212258 -3.940336 16.27955 -2.25675 -0.9157896 4.710136 1.407867 9.307833 -5.887558 1.203289 22.50318 6.767713 3.895455 -21.46214 7.681173 5.50289 -17.72356 11.4034 83.31884 35.61066 -14.37862 -0 0 14.23144 -14.44358 10.17245 8.369947 5.739791 -19.4196 -2.558724 -91.87022 23.9764 20.14875 0 0 -14.21707 6.850475 14.42402 5.468862
1.390156 101.9976 78.44914 -0.08669876 -6.929494 -0.5029172 5.789423 6.942427 3.61895 -0 11.98698 -0 -6.015284 -11.76532 -2.888455 -0.1899219 -14.48976 -5.653748 -0 49.18716 -0 -4.488524 -3.911668 17.08245 -2.32428 -0.7146965 5.063841 1.084072 9.271693 -5.353554 1.277974 22.61526 6.650396 3.837162 -20.82776 7.548684 5.384484 -17.99414 11.39092 82.17542 35.07813 -12.45617 -0 0 15.31972 -15.63741 10.30282 9.109786 5.587178 -18.71454 -2.476797 -92.31792 23.46829 20.92275 0 0 -12.39952 6.351686 13.99144 5.794957
